<?xml version="1.0" encoding="UTF-8"?>
<svg version="1.1" xmlns="http://www.w3.org/2000/svg" width="512" height="512">
<path d="M0 0 C6.69013376 5.67647713 6.69013376 5.67647713 7.31764698 10.85599136 C7.63077365 19.91559218 5.10776495 28.03898148 2.58276367 36.62402344 C2.09476696 38.32313165 1.60806848 40.02261316 1.12255001 41.72243118 C-0.20987818 46.37354651 -1.56028755 51.01927316 -2.91362333 55.66434097 C-4.37218477 60.68300357 -5.81343083 65.70663685 -7.25662231 70.72973633 C-9.75849924 79.42935948 -12.27050921 88.12600204 -14.78952026 96.82067871 C-18.77222115 110.56815273 -22.7358579 124.32108082 -26.69555664 138.07519531 C-27.71056609 141.60047915 -28.72559981 145.125756 -29.7406407 148.65103078 C-30.42415449 151.02492265 -31.10764018 153.39882262 -31.79109806 155.77273059 C-33.87671987 163.01631531 -35.96406493 170.25940098 -38.05270165 177.50211692 C-48.04140669 212.14060136 -57.9570577 246.79932845 -67.81411099 281.47550106 C-68.84630309 285.10649868 -69.87875159 288.73742328 -70.91128349 292.36832428 C-76.87334117 313.33427405 -82.83285274 334.30094547 -88.78262329 355.27038574 C-91.5609582 365.06236728 -94.34288348 374.85332046 -97.12918139 384.64303923 C-98.82297462 390.59498075 -100.51224593 396.54817836 -102.19780594 402.50245643 C-103.22349199 406.12145878 -104.2536314 409.73918188 -105.28506887 413.35654879 C-105.75525947 415.00889704 -106.22364561 416.6617601 -106.69000876 418.3151927 C-113.56706276 442.68631912 -113.56706276 442.68631912 -119.9375 447.75 C-125.22962679 449.51404226 -131.05853326 449.87357381 -136.32177734 447.81948853 C-138.68619546 446.46611384 -140.89839245 444.9955817 -143.125 443.42578125 C-143.96912445 442.86098053 -144.8132489 442.29617981 -145.68295288 441.71426392 C-148.45116365 439.85378511 -151.19366634 437.95870379 -153.9375 436.0625 C-155.88334065 434.74512898 -157.83079867 433.43014406 -159.77978516 432.11743164 C-163.82653904 429.38589446 -167.86305149 426.64014805 -171.89160156 423.88183594 C-177.68684181 419.91537483 -183.50690377 415.98689071 -189.3359375 412.0703125 C-196.53718824 407.22938193 -203.73136689 402.37827554 -210.91796875 397.515625 C-220.12900083 391.28581167 -229.36842507 385.09940267 -238.625 378.9375 C-239.27031677 378.50790985 -239.91563354 378.0783197 -240.58050537 377.63571167 C-244.0317089 375.33877499 -247.48401462 373.04350502 -250.9375 370.75 C-255.8242304 374.81542588 -260.40080457 379.08556076 -264.86328125 383.60986328 C-265.51630219 384.26755707 -266.16932312 384.92525085 -266.84213257 385.60287476 C-268.24815466 387.01933173 -269.65307078 388.43688724 -271.05697632 389.85544205 C-273.28265077 392.10328853 -275.51239892 394.34701806 -277.7434082 396.58956909 C-284.08226376 402.96188367 -290.41690018 409.33834524 -296.74121094 415.72509766 C-300.62018516 419.64178478 -304.50649224 423.55106692 -308.39755249 427.4557457 C-309.8738589 428.94008452 -311.3473879 430.42719129 -312.81802368 431.91714859 C-314.87569401 434.00139255 -316.94257495 436.07608041 -319.01171875 438.14892578 C-319.61140472 438.76096863 -320.2110907 439.37301147 -320.82894897 440.00360107 C-325.09630494 444.25096027 -329.53747095 448.12419755 -335.6328125 449.24609375 C-344.07739046 449.04244637 -344.07739046 449.04244637 -347.9375 445.75 C-356.338203 436.29479411 -357.79615605 420.49395102 -360.6484375 408.4296875 C-361.09604486 406.54561056 -361.54390664 404.66159404 -361.99200439 402.77763367 C-362.69819025 399.80832915 -363.40398856 396.83893767 -364.10803223 393.86912441 C-365.58318246 387.65507929 -367.08420175 381.44794592 -368.60618401 375.24520969 C-377.97950616 337.03564986 -377.97950616 337.03564986 -380.63684654 319.63605118 C-384.85161732 288.96336731 -384.85161732 288.96336731 -403.70285034 265.78302002 C-411.05913213 260.71013612 -418.88684852 256.50888533 -426.85964966 252.49554443 C-437.28595079 247.22916253 -446.74302338 240.76054564 -456.31436157 234.09515381 C-460.62225 231.10478051 -464.97227094 228.17761441 -469.3203125 225.24609375 C-470.52277367 224.43069122 -470.52277367 224.43069122 -471.74952698 223.59881592 C-475.81393949 220.84394953 -479.89269471 218.11441728 -483.99902344 215.42236328 C-485.22611526 214.61509544 -485.22611526 214.61509544 -486.47799683 213.79151917 C-488.01868572 212.77982525 -489.56251665 211.77289237 -491.11013794 210.77183533 C-501.12520978 204.18687066 -501.12520978 204.18687066 -502.9375 198.75 C-503.42700075 193.63832828 -503.51504037 189.1675991 -501.5625 184.375 C-494.67869326 177.49119326 -484.03653 174.76110099 -475.07421875 171.48828125 C-473.70954761 170.98490952 -472.34508704 170.4809666 -470.9808197 169.97650146 C-468.06111329 168.89792573 -465.14021887 167.82265994 -462.21832275 166.75003052 C-455.11442782 164.14169837 -448.01742671 161.51469551 -440.91979218 158.88938713 C-438.45752746 157.97877999 -435.9950321 157.06879843 -433.53253174 156.15882874 C-417.89105447 150.37601195 -402.28307751 144.50573218 -386.68264771 138.61323547 C-380.95662392 136.45063597 -375.22990071 134.28988821 -369.5032692 132.12889862 C-368.06134863 131.58476988 -366.61944138 131.04060588 -365.17754745 130.49640656 C-348.16915566 124.0774406 -331.1479235 117.69280901 -314.125 111.3125 C-312.61981095 110.74830401 -311.11462296 110.1841052 -309.60943604 109.61990356 C-303.57786563 107.35908823 -297.54622777 105.09845296 -291.51446533 102.83815002 C-280.98438783 98.89217377 -270.45486673 94.94471624 -259.92578125 90.99609375 C-259.18363058 90.71777269 -258.44147991 90.43945164 -257.67683983 90.15269661 C-253.9293783 88.74731629 -250.18192637 87.34191036 -246.43447876 85.93649292 C-239.6856033 83.40545422 -232.93664263 80.87464273 -226.18768883 78.34381294 C-222.43762244 76.93755116 -218.68756149 75.53127485 -214.9375 74.125 C-213.43750003 73.56249993 -211.93750003 72.99999993 -210.4375 72.4375 C-209.695 72.1590625 -208.9525 71.880625 -208.1875 71.59375 C-181.88037109 61.72857666 -155.57324219 51.86340332 -129.26611328 41.99822998 C-128.48925769 41.70690784 -127.7124021 41.41558569 -126.91200542 41.1154356 C-125.33716006 40.52487121 -123.76231125 39.93431603 -122.18745899 39.34377003 C-118.25385379 37.86871388 -114.3203079 36.39349995 -110.3868866 34.91795349 C-103.46739068 32.32241116 -96.5475486 29.72782209 -89.62532711 27.13955593 C-85.94394997 25.76305211 -82.26290002 24.38567511 -78.58203125 23.0078125 C-77.51343085 22.607839 -77.51343085 22.607839 -76.42324257 22.19978523 C-67.82243921 18.97875341 -59.2357278 15.7243317 -50.66757202 12.41740417 C-46.18357227 10.68682497 -41.69514919 8.96788735 -37.20654297 7.2492981 C-34.23392314 6.10444969 -31.26938325 4.94032447 -28.3046875 3.77514648 C-8.82149968 -3.75382965 -8.82149968 -3.75382965 0 0 Z M-138.9375 121.75 C-139.88625 122.430625 -140.835 123.11125 -141.8125 123.8125 C-151.51056066 130.73101637 -161.34665462 137.41384787 -171.296875 143.96484375 C-176.07948228 147.1254676 -180.79341687 150.3404934 -185.4140625 153.734375 C-192.1081502 158.64999059 -199.04071395 163.18553412 -205.9765625 167.75 C-210.8726413 170.9887498 -215.70596891 174.27432724 -220.4375 177.75 C-227.12319645 182.66115722 -234.04857519 187.19070758 -240.9765625 191.75 C-245.8726413 194.9887498 -250.70596891 198.27432724 -255.4375 201.75 C-262.12319645 206.66115722 -269.04857519 211.19070758 -275.9765625 215.75 C-280.8726413 218.9887498 -285.70596891 222.27432724 -290.4375 225.75 C-297.12319645 230.66115722 -304.04857519 235.19070758 -310.9765625 239.75 C-315.86484568 242.98359301 -320.69064544 246.26344999 -325.4140625 249.734375 C-331.25114249 254.02258529 -337.26388808 258.01806024 -343.3125 262 C-345.40510524 263.37799464 -347.49630319 264.75812929 -349.5859375 266.140625 C-350.94984619 267.0382959 -350.94984619 267.0382959 -352.34130859 267.95410156 C-354.97523002 269.77609949 -357.46090838 271.7207026 -359.9375 273.75 C-358.41871492 284.33610791 -355.93676868 294.65691139 -353.4375 305.04296875 C-352.99662052 306.88427302 -352.55586747 308.72560757 -352.11523438 310.56697083 C-351.19698 314.39928991 -350.27532399 318.23077244 -349.3515625 322.06176758 C-348.1661027 326.98048295 -346.99223768 331.90188805 -345.82116699 336.82404613 C-344.91749998 340.61450604 -344.00634566 344.40313601 -343.09301758 348.19127846 C-342.65655199 350.00680032 -342.22278772 351.82297376 -341.79174805 353.63979149 C-341.19191061 356.16441205 -340.5817185 358.68630425 -339.96875 361.20776367 C-339.79206787 361.96142715 -339.61538574 362.71509064 -339.43334961 363.49159241 C-338.99737183 365.26101563 -338.47573495 367.00895482 -337.9375 368.75 C-337.2775 369.08 -336.6175 369.41 -335.9375 369.75 C-335.74593323 369.04113647 -335.55436646 368.33227295 -335.35699463 367.60192871 C-333.54191914 360.89153567 -331.71863655 354.1834203 -329.88632584 347.47771454 C-328.94481017 344.03093363 -328.00638458 340.58337541 -327.07519531 337.13378906 C-326.17486753 333.79899367 -325.26619579 330.4665719 -324.35192108 327.13557434 C-323.83895847 325.25839494 -323.33445572 323.37891031 -322.83013916 321.49938965 C-322.51010925 320.33879028 -322.19007935 319.17819092 -321.86035156 317.98242188 C-321.58499573 316.969823 -321.30963989 315.95722412 -321.02593994 314.91394043 C-318.50287617 307.57975214 -315.17435641 302.39670376 -309.62768555 297.00195312 C-309.0043634 296.37965317 -308.38104126 295.75735321 -307.73883057 295.11619568 C-305.69316963 293.07836487 -303.6338319 291.05496976 -301.57421875 289.03125 C-300.13843997 287.60548798 -298.70362553 286.17875425 -297.26972961 284.75109863 C-293.50154283 281.0037853 -289.72194643 277.26820296 -285.93933105 273.53546143 C-279.89372512 267.56527011 -273.86666132 261.57634699 -267.83771706 255.58934021 C-265.74101491 253.51019616 -263.64007319 251.43541957 -261.53825378 249.3614502 C-256.13584932 244.01976814 -250.79683203 238.71960017 -245.88069153 232.92175293 C-241.27377016 227.77295786 -236.27237857 222.97974204 -231.37361145 218.11094666 C-229.24318874 215.99341912 -227.11602078 213.8726685 -224.98962402 211.75109863 C-219.71055066 206.4853148 -214.42602263 201.22501608 -209.1416626 195.96453857 C-204.66576698 191.50844939 -200.19197671 187.05026615 -195.72090149 182.58934021 C-193.63642822 180.51129658 -191.54894079 178.43631465 -189.46130371 176.3614502 C-183.968316 170.88949257 -178.51827504 165.45163333 -173.49716187 159.53674316 C-170.37487801 155.95986572 -166.96527978 152.65629573 -163.59765625 149.3125 C-162.83069931 148.54695801 -162.06374237 147.78141602 -161.27354431 146.99267578 C-158.85139119 144.57606803 -156.42576388 142.16298274 -154 139.75 C-152.34547107 138.10049314 -150.69117198 136.45075571 -149.03710938 134.80078125 C-145.00655798 130.78118629 -140.97315728 126.76446831 -136.9375 122.75 C-137.9275 122.255 -137.9275 122.255 -138.9375 121.75 Z " fill="#ffffff" transform="translate(504.9375,1.25)"/>
<path d="M0 0 C3.16097316 3.92726968 4.42386037 6.16549756 4.625 11.1875 C4.68816406 12.16976563 4.75132813 13.15203125 4.81640625 14.1640625 C2.34434996 25.30752869 -11.09425761 35.0281266 -18.90625 42.83203125 C-20.47153164 44.40120555 -22.03659143 45.97060117 -23.60144043 47.54020691 C-26.86941385 50.81561136 -30.14119518 54.08715388 -33.41552734 57.35620117 C-37.60352842 61.53839167 -41.78001374 65.73187779 -45.9535141 69.9285326 C-49.17739249 73.16715894 -52.40818836 76.39881477 -55.64100647 79.62851524 C-57.1838645 81.17188528 -58.72437256 82.71760834 -60.26243591 84.26575661 C-62.41328347 86.42898039 -64.57350947 88.58239646 -66.73632812 90.73364258 C-67.36406631 91.36902451 -67.9918045 92.00440643 -68.63856506 92.65904236 C-72.97932644 96.94879541 -77.44964323 100.92053216 -83.6328125 102.05859375 C-90.4632172 101.89387338 -93.5505263 100.63121054 -98.75 96.125 C-101.70113477 92.35619413 -101.5819479 88.38692504 -101.69921875 83.7578125 C-99.8947048 76.18810784 -93.00484034 70.33776546 -87.63452148 65.00073242 C-86.92966614 64.29237244 -86.22481079 63.58401245 -85.49859619 62.85418701 C-83.19023332 60.53709158 -80.87471567 58.22730643 -78.55859375 55.91796875 C-76.94217706 54.30020343 -75.32605724 52.68214142 -73.71022034 51.063797 C-70.33357244 47.68420971 -66.95335674 44.30824334 -63.57055664 40.93481445 C-59.23722769 36.61290671 -54.91297653 32.28204488 -50.59133816 27.94845104 C-47.26039073 24.61027646 -43.92469441 21.27688011 -40.58754158 17.94491005 C-38.99088847 16.34958964 -37.39571567 14.75278624 -35.80206108 13.15447044 C-33.57654078 10.92386798 -31.34470467 8.69978206 -29.11108398 6.47729492 C-28.45588272 5.8180452 -27.80068146 5.15879547 -27.12562561 4.47956848 C-19.18186795 -3.39103863 -9.77164392 -8.10838538 0 0 Z " fill="#ffffff" transform="translate(100.9375,410.4375)"/>
<path d="M0 0 C3.16097316 3.92726968 4.42386037 6.16549756 4.625 11.1875 C4.68816406 12.16976563 4.75132813 13.15203125 4.81640625 14.1640625 C2.34434996 25.30752869 -11.09425761 35.0281266 -18.90625 42.83203125 C-20.47153164 44.40120555 -22.03659143 45.97060117 -23.60144043 47.54020691 C-26.86941385 50.81561136 -30.14119518 54.08715388 -33.41552734 57.35620117 C-37.60352842 61.53839167 -41.78001374 65.73187779 -45.9535141 69.9285326 C-49.17739249 73.16715894 -52.40818836 76.39881477 -55.64100647 79.62851524 C-57.1838645 81.17188528 -58.72437256 82.71760834 -60.26243591 84.26575661 C-62.41328347 86.42898039 -64.57350947 88.58239646 -66.73632812 90.73364258 C-67.36406631 91.36902451 -67.9918045 92.00440643 -68.63856506 92.65904236 C-72.97932644 96.94879541 -77.44964323 100.92053216 -83.6328125 102.05859375 C-90.4632172 101.89387338 -93.5505263 100.63121054 -98.75 96.125 C-101.70113477 92.35619413 -101.5819479 88.38692504 -101.69921875 83.7578125 C-99.8947048 76.18810784 -93.00484034 70.33776546 -87.63452148 65.00073242 C-86.92966614 64.29237244 -86.22481079 63.58401245 -85.49859619 62.85418701 C-83.19023332 60.53709158 -80.87471567 58.22730643 -78.55859375 55.91796875 C-76.94217706 54.30020343 -75.32605724 52.68214142 -73.71022034 51.063797 C-70.33357244 47.68420971 -66.95335674 44.30824334 -63.57055664 40.93481445 C-59.23722769 36.61290671 -54.91297653 32.28204488 -50.59133816 27.94845104 C-47.26039073 24.61027646 -43.92469441 21.27688011 -40.58754158 17.94491005 C-38.99088847 16.34958964 -37.39571567 14.75278624 -35.80206108 13.15447044 C-33.57654078 10.92386798 -31.34470467 8.69978206 -29.11108398 6.47729492 C-28.45588272 5.8180452 -27.80068146 5.15879547 -27.12562561 4.47956848 C-19.18186795 -3.39103863 -9.77164392 -8.10838538 0 0 Z " fill="#ffffff" transform="translate(100.9375,320.4375)"/>
</svg>
